# xmcd CD database file
#
# Track frame offsets:
#	150
#	21715
#	44673
#	61915
#	80863
#
# Disc length: 1363 seconds
#
# Revision: 0
# Processed by: cddbd v1.5.1PL0 Copyright (c) Steve Scherf et al.
# Submitted via: CDex 1.51
#
DISCID=47055105
DTITLE=VOICE - 24時間の神話 -UNPLUGGED-
DYEAR=2003
DGENRE=JPop
TTITLE0=24時間の神話 -UNPLUGGED-
TTITLE1=ケンとメリー(愛と風のように)
TTITLE2=空気だけがカラッポで
TTITLE3=少年の虹
TTITLE4=24時間の神話 -UNPLUGGED-(Instrumental Version)
EXTD=YEAR: 2003
EXTT0=
EXTT1=
EXTT2=
EXTT3=
EXTT4=
PLAYORDER=
